<?xml version="1.0" encoding="UTF-8"?>
<svg xmlns="http://www.w3.org/2000/svg" viewBox="0 0 1000 1000">
  <defs>
    <style>
      .cls-1 {
        fill: #fff;
      }

      .cls-2 {
        opacity: .18;
      }

      .cls-2, .cls-3 {
        mix-blend-mode: multiply;
      }

      .cls-4 {
        mix-blend-mode: screen;
      }

      .cls-4, .cls-5 {
        fill: #662d91;
      }

      .cls-6 {
        isolation: isolate;
      }

      .cls-7 {
        opacity: .2;
      }
    </style>
  </defs>
  <g class="cls-6">
    <g id="Layer_2" data-name="Layer 2">
      <g id="Layer_1-2" data-name="Layer 1">
        <g>
          <circle class="cls-1" cx="500" cy="500" r="500"/>
          <g>
            <path class="cls-5" d="M848.91,487.55v35.16c0,24.34-17.18,44.64-39.35,48.08,8.13-21.99,12.58-45.89,12.58-70.8,0-20.82-3.11-40.91-8.9-59.79,20.37,4.98,35.67,24.38,35.67,47.35Z"/>
            <path class="cls-5" d="M152.79,525.37l-1.65-35.12c-1.14-24.31,15.07-45.48,37.05-50.08-7.09,22.39-10.41,46.5-9.24,71.38.98,20.79,5.02,40.7,11.69,59.25-20.58-3.91-36.77-22.49-37.85-45.43Z"/>
            <g class="cls-7">
              <path class="cls-4" d="M269.32,523.78c0-70.53,54.64-128.24,121.43-128.24h228.49c50.45,0,93.95,32.94,112.22,79.45-11.09-58.67-60.39-103.24-119.08-103.24h-228.49c-66.78,0-121.43,57.71-121.43,128.24h0c0,17.25,3.29,33.73,9.2,48.79-1.53-8.09-2.35-16.45-2.35-25h0Z"/>
            </g>
            <path class="cls-5" d="M800.28,439.06c-24.39-78.3-94.47-135.21-176.47-135.21h-247.42c-51.05,0-97.5,22.08-131.17,57.6-33.68,35.56-54.58,84.62-54.58,138.53,0,107.91,83.61,196.17,185.75,196.17h247.42c51.09,0,97.5-22.08,131.17-57.6,17.99-19,32.33-41.84,41.81-67.24,8.25-22.16,12.77-46.22,12.77-71.33,0-21.23-3.26-41.72-9.28-60.92ZM733.82,506.81c0,66.79-54.64,121.43-121.43,121.43h-228.49c-2.61,0-5.19-.11-7.76-.28l-62.2,22.57c-6.83,2.48-13.93-2.88-13.93-10.5v-45.68c-23.09-22.14-37.54-53.22-37.54-87.54v-13.62c0-66.79,54.64-121.43,121.43-121.43h228.49c66.79,0,121.43,54.64,121.43,121.43v13.62Z"/>
            <ellipse class="cls-5" cx="367.64" cy="499.99" rx="43.52" ry="45.97"/>
            <path class="cls-5" d="M532.92,547.8c0,25.39-19.49,45.97-43.52,45.97s-43.52-20.58-43.52-45.97"/>
            <ellipse class="cls-5" cx="611.15" cy="499.99" rx="43.52" ry="45.97"/>
            <g class="cls-3">
              <g class="cls-2">
                <path class="cls-5" d="M611.15,545.96c24.04,0,43.52-20.58,43.52-45.97,0-1.2-.09-2.37-.17-3.55-1.72,23.72-20.45,42.42-43.35,42.42s-41.63-18.69-43.35-42.42c-.08,1.18-.17,2.35-.17,3.55,0,25.39,19.49,45.97,43.52,45.97Z"/>
              </g>
              <g class="cls-2">
                <path class="cls-5" d="M367.64,538.86c-22.9,0-41.63-18.69-43.35-42.42-.09,1.18-.17,2.35-.17,3.55,0,25.39,19.49,45.97,43.53,45.97s43.52-20.58,43.52-45.97c0-1.2-.08-2.37-.17-3.55-1.72,23.72-20.45,42.42-43.35,42.42Z"/>
              </g>
            </g>
          </g>
        </g>
      </g>
    </g>
  </g>
</svg>