<?xml version="1.0" encoding="UTF-8"?>
<svg xmlns="http://www.w3.org/2000/svg" viewBox="0 0 1179.44 209.16">
  <defs>
    <style>
      .cls-1 {
        fill: #faa61a;
      }

      .cls-2 {
        opacity: .18;
      }

      .cls-2, .cls-3 {
        mix-blend-mode: multiply;
      }

      .cls-4 {
        isolation: isolate;
      }

      .cls-5 {
        fill: #662d91;
      }
    </style>
  </defs>
  <g class="cls-4">
    <g id="Layer_2" data-name="Layer 2">
      <g id="Layer_1-2" data-name="Layer 1">
        <g>
          <g>
            <path class="cls-5" d="M1036.45,53.15v10.17c0,7.04-4.97,12.92-11.39,13.91,2.35-6.36,3.64-13.28,3.64-20.49,0-6.02-.9-11.84-2.57-17.3,5.89,1.44,10.32,7.06,10.32,13.7Z"/>
            <path class="cls-5" d="M835.01,64.1l-.48-10.16c-.33-7.04,4.36-13.16,10.72-14.49-2.05,6.48-3.01,13.45-2.67,20.65.28,6.02,1.45,11.78,3.38,17.14-5.95-1.13-10.64-6.51-10.95-13.14Z"/>
            <g class="cls-2">
              <path class="cls-5" d="M868.73,63.64c0-20.41,15.81-37.11,35.14-37.11h66.12c14.6,0,27.19,9.53,32.47,22.99-3.21-16.98-17.47-29.87-34.46-29.87h-66.12c-19.33,0-35.14,16.7-35.14,37.11h0c0,4.99.95,9.76,2.66,14.12-.44-2.34-.68-4.76-.68-7.23h0Z"/>
            </g>
            <path class="cls-5" d="M1022.37,39.12c-7.06-22.66-27.34-39.12-51.06-39.12h-71.6c-14.77,0-28.21,6.39-37.96,16.67-9.74,10.29-15.79,24.49-15.79,40.09,0,31.22,24.19,56.76,53.75,56.76h71.6c14.78,0,28.21-6.39,37.96-16.67,5.21-5.5,9.36-12.11,12.1-19.46,2.39-6.41,3.7-13.37,3.7-20.64,0-6.14-.94-12.07-2.69-17.63ZM1003.14,58.73c0,19.33-15.81,35.14-35.14,35.14h-66.12c-.76,0-1.5-.03-2.25-.08l-18,6.53c-1.98.72-4.03-.83-4.03-3.04v-13.22c-6.68-6.41-10.86-15.4-10.86-25.33v-3.94c0-19.33,15.81-35.14,35.14-35.14h66.12c19.33,0,35.14,15.81,35.14,35.14v3.94Z"/>
            <ellipse class="cls-5" cx="897.18" cy="56.76" rx="12.59" ry="13.3"/>
            <path class="cls-5" d="M945.01,63.94c0,7.35-5.64,13.3-12.59,13.3s-12.59-5.96-12.59-13.3"/>
            <ellipse class="cls-5" cx="967.65" cy="56.76" rx="12.59" ry="13.3"/>
            <g class="cls-3">
              <g class="cls-2">
                <path class="cls-5" d="M967.65,70.06c6.96,0,12.59-5.96,12.59-13.3,0-.35-.02-.69-.05-1.03-.5,6.86-5.92,12.27-12.55,12.27s-12.05-5.41-12.55-12.27c-.02.34-.05.68-.05,1.03,0,7.35,5.64,13.3,12.59,13.3Z"/>
              </g>
              <g class="cls-2">
                <path class="cls-5" d="M897.18,68c-6.63,0-12.05-5.41-12.55-12.27-.02.34-.05.68-.05,1.03,0,7.35,5.64,13.3,12.59,13.3s12.59-5.96,12.59-13.3c0-.35-.02-.69-.05-1.03-.5,6.86-5.92,12.27-12.55,12.27Z"/>
              </g>
            </g>
          </g>
          <g>
            <g>
              <path class="cls-5" d="M42.8,204.1c0,1.51-.31,2.66-.93,3.47-.62.81-1.69,1.21-3.19,1.21h-7.48c-1.51,0-2.58-.43-3.23-1.29-.65-.86-.97-2.04-.97-3.54v-11.68c0-1.19-.36-2.23-1.09-3.12l-22.82-25.86c-.57-.62-1.06-1.26-1.48-1.91-.42-.65-.62-1.34-.62-2.06,0-1.09.38-1.95,1.13-2.57.75-.62,1.8-.93,3.15-.93h7.09c1.25,0,2.25.19,3,.58.75.39,1.49.97,2.22,1.75l15.81,17.99c.42.47.75.78,1.01.93.26.16.52.23.78.23s.52-.08.78-.23c.26-.16.6-.47,1.01-.93l15.34-17.99c.67-.78,1.4-1.36,2.18-1.75.78-.39,1.79-.58,3.04-.58h7.01c1.35,0,2.39.31,3.12.93.73.62,1.09,1.48,1.09,2.57,0,.73-.19,1.42-.58,2.06-.39.65-.87,1.29-1.44,1.91l-22.9,25.86c-.42.47-.69.95-.82,1.44-.13.49-.19,1.03-.19,1.6v11.92Z"/>
              <path class="cls-5" d="M123.79,209.16c-5.04,0-9.4-.1-13.08-.31-3.69-.21-6.81-.64-9.38-1.29-2.57-.65-4.65-1.57-6.23-2.76-1.58-1.19-2.82-2.76-3.7-4.71s-1.48-4.33-1.79-7.17c-.31-2.83-.47-6.19-.47-10.08v-1.09c0-3.89.16-7.25.47-10.08.31-2.83.91-5.22,1.79-7.17s2.12-3.52,3.7-4.71c1.58-1.19,3.66-2.12,6.23-2.76,2.57-.65,5.7-1.08,9.38-1.29,3.69-.21,8.05-.31,13.08-.31h2.41c5.04,0,9.4.1,13.08.31,3.69.21,6.81.64,9.38,1.29,2.57.65,4.65,1.57,6.23,2.76,1.58,1.2,2.82,2.76,3.7,4.71s1.48,4.34,1.79,7.17c.31,2.83.47,6.19.47,10.08v1.09c0,3.89-.16,7.26-.47,10.08-.31,2.83-.91,5.22-1.79,7.17s-2.12,3.52-3.7,4.71c-1.58,1.19-3.66,2.12-6.23,2.76-2.57.65-5.7,1.08-9.38,1.29-3.69.21-8.05.31-13.08.31h-2.41ZM125.66,196.93c4.57,0,8.15-.13,10.75-.39,2.6-.26,4.53-.88,5.8-1.87,1.27-.99,2.05-2.44,2.34-4.36.28-1.92.43-4.54.43-7.87v-.39c0-3.37-.14-6.04-.43-7.98-.29-1.95-1.07-3.41-2.34-4.4-1.27-.99-3.21-1.61-5.8-1.87-2.6-.26-6.18-.39-10.75-.39h-1.32c-4.62,0-8.22.13-10.79.39-2.57.26-4.49.88-5.76,1.87-1.27.99-2.05,2.45-2.34,4.4-.29,1.95-.43,4.61-.43,7.98v.39c0,3.32.14,5.95.43,7.87.28,1.92,1.06,3.38,2.34,4.36,1.27.99,3.19,1.61,5.76,1.87,2.57.26,6.16.39,10.79.39h1.32Z"/>
              <path class="cls-5" d="M236.56,160.49c0-1.45.31-2.6.93-3.43.62-.83,1.69-1.25,3.19-1.25h7.55c1.51,0,2.57.42,3.19,1.25.62.83.93,1.97.93,3.43v30.37c0,4.05-.56,7.28-1.67,9.7-1.12,2.41-2.95,4.26-5.49,5.53-2.54,1.27-5.85,2.1-9.93,2.49-4.08.39-9.07.58-14.99.58h-1.56c-5.92,0-10.92-.18-14.99-.54-4.08-.36-7.37-1.17-9.89-2.42-2.52-1.25-4.34-3.08-5.45-5.49-1.12-2.41-1.67-5.7-1.67-9.85v-30.37c0-1.45.31-2.6.93-3.43.62-.83,1.69-1.25,3.19-1.25h7.55c1.51,0,2.57.42,3.19,1.25.62.83.93,1.97.93,3.43v25.54c0,2.49.22,4.47.66,5.92.44,1.45,1.25,2.53,2.41,3.23s2.79,1.14,4.87,1.32c2.08.18,4.75.27,8.02.27h2.42c3.27,0,5.92-.09,7.94-.27s3.61-.64,4.75-1.36c1.14-.73,1.92-1.8,2.34-3.23.42-1.43.62-3.39.62-5.88v-25.54Z"/>
              <path class="cls-5" d="M295.05,204.1c0,1.45-.31,2.6-.93,3.43-.62.83-1.69,1.25-3.19,1.25h-7.32c-1.51,0-2.57-.42-3.19-1.25-.62-.83-.93-1.97-.93-3.43v-39.56c0-1.61.27-2.96.82-4.05.54-1.09,1.3-1.99,2.26-2.69.96-.7,2.06-1.21,3.31-1.52s2.57-.47,3.97-.47h30.37c3.89,0,7.25.21,10.09.62,2.83.42,5.15,1.18,6.97,2.3,1.82,1.12,3.17,2.67,4.05,4.67.88,2,1.32,4.58,1.32,7.75v2.8c0,3.12-.69,5.49-2.06,7.13-1.38,1.64-3.1,2.95-5.18,3.93-.42.21-.74.4-.97.58-.23.18-.35.46-.35.82,0,.42.13.7.39.86.26.16.52.29.78.39,1.25.42,2.34.95,3.27,1.6.93.65,1.71,1.52,2.34,2.61.62,1.09,1.09,2.44,1.4,4.05.31,1.61.47,3.56.47,5.84v2.34c0,1.45-.31,2.6-.93,3.43-.62.83-1.69,1.25-3.19,1.25h-7.32c-1.51,0-2.57-.42-3.19-1.25-.62-.83-.93-1.97-.93-3.43v-.86c0-2.18-.14-3.88-.43-5.1-.29-1.22-1.03-2.13-2.22-2.73-1.19-.6-3.03-.97-5.49-1.13-2.47-.16-5.91-.23-10.32-.23h-10.59c-.99,0-1.74.2-2.26.58-.52.39-.78,1.05-.78,1.99v7.48ZM314.6,182.53c2.49,0,4.53-.08,6.11-.23,1.58-.16,2.83-.45,3.74-.9.91-.44,1.53-1.06,1.87-1.87.34-.8.51-1.86.51-3.15v-2.88c0-1.19-.13-2.18-.39-2.96-.26-.78-.83-1.39-1.71-1.83-.88-.44-2.15-.75-3.82-.93-1.66-.18-3.89-.27-6.7-.27h-16.12c-.99,0-1.74.2-2.26.58-.52.39-.78,1.05-.78,1.99v9.73c0,1.82,1.01,2.73,3.04,2.73h16.51Z"/>
              <path class="cls-5" d="M462.25,201.14c-.42-.78-.82-1.29-1.21-1.52-.39-.23-1.08-.35-2.06-.35h-28.82c-.99,0-1.67.12-2.06.35-.39.23-.79.74-1.21,1.52l-1.87,3.58c-.42.78-.79,1.43-1.13,1.95-.34.52-.7.93-1.09,1.25-.39.31-.84.53-1.36.66-.52.13-1.17.19-1.95.19h-6.85c-1.35,0-2.4-.31-3.15-.93-.75-.62-1.13-1.45-1.13-2.49s.29-2.05.86-3.04l23.91-43.22c.67-1.19,1.38-2.04,2.1-2.53.73-.49,1.76-.74,3.12-.74h12.46c1.35,0,2.38.25,3.08.74.7.49,1.41,1.34,2.14,2.53l24.22,43.22c.57,1.09.86,2.1.86,3.04,0,1.14-.42,2-1.25,2.57-.83.57-1.84.86-3.04.86h-7.4c-.73,0-1.34-.06-1.83-.19-.49-.13-.93-.35-1.32-.66-.39-.31-.75-.73-1.09-1.25-.34-.52-.69-1.17-1.05-1.95l-1.87-3.58ZM445.98,168.43c-.42-.83-.88-1.25-1.4-1.25s-.99.42-1.4,1.25l-8.49,16.9c-.31.62-.47,1.14-.47,1.56,0,.88.62,1.32,1.87,1.32h16.9c1.25,0,1.87-.44,1.87-1.32,0-.42-.16-.93-.47-1.56l-8.41-16.9Z"/>
              <path class="cls-5" d="M521.13,204.1c0,1.51-.31,2.66-.93,3.47-.62.81-1.69,1.21-3.19,1.21h-7.48c-1.51,0-2.58-.43-3.23-1.29-.65-.86-.97-2.04-.97-3.54v-43.46c0-1.51.31-2.66.93-3.47.62-.8,1.69-1.21,3.19-1.21h7.48c1.5,0,2.58.43,3.23,1.29.65.86.97,2.04.97,3.54v43.46Z"/>
              <path class="cls-5" d="M626.89,155.81c5.19,0,9.45.25,12.77.74,3.32.49,5.93,1.43,7.83,2.8,1.9,1.38,3.19,3.3,3.89,5.76.7,2.47,1.05,5.67,1.05,9.62v1.4c0,3.95-.35,7.15-1.05,9.62-.7,2.47-2,4.39-3.89,5.76-1.9,1.38-4.5,2.31-7.83,2.8-3.32.49-7.58.74-12.77.74h-17.83c-.99,0-1.74.2-2.26.58-.52.39-.78,1.05-.78,1.99v6.46c0,1.51-.31,2.66-.93,3.47-.62.81-1.69,1.21-3.19,1.21h-7.24c-1.51,0-2.58-.43-3.23-1.29-.65-.86-.97-2.04-.97-3.54v-39.41c0-1.61.27-2.96.82-4.05.54-1.09,1.3-1.99,2.26-2.69.96-.7,2.06-1.21,3.31-1.52s2.57-.47,3.97-.47h26.09ZM609.05,167.49c-.99,0-1.74.2-2.26.58-.52.39-.78,1.05-.78,1.99v10.44c0,1.82,1.01,2.73,3.04,2.73h15.19c2.91,0,5.22-.09,6.93-.27,1.71-.18,3-.53,3.86-1.05.86-.52,1.4-1.27,1.63-2.26.23-.99.35-2.28.35-3.89v-.7c0-1.61-.12-2.92-.35-3.93-.23-1.01-.78-1.78-1.63-2.3-.86-.52-2.14-.87-3.86-1.05-1.71-.18-4.02-.27-6.93-.27h-15.19Z"/>
              <path class="cls-5" d="M721.82,201.14c-.42-.78-.82-1.29-1.21-1.52-.39-.23-1.08-.35-2.06-.35h-28.82c-.99,0-1.67.12-2.06.35-.39.23-.79.74-1.21,1.52l-1.87,3.58c-.42.78-.79,1.43-1.13,1.95-.34.52-.7.93-1.09,1.25-.39.31-.84.53-1.36.66-.52.13-1.17.19-1.95.19h-6.85c-1.35,0-2.4-.31-3.15-.93-.75-.62-1.13-1.45-1.13-2.49s.29-2.05.86-3.04l23.91-43.22c.67-1.19,1.38-2.04,2.1-2.53.73-.49,1.76-.74,3.12-.74h12.46c1.35,0,2.38.25,3.08.74.7.49,1.41,1.34,2.14,2.53l24.22,43.22c.57,1.09.86,2.1.86,3.04,0,1.14-.42,2-1.25,2.57-.83.57-1.84.86-3.04.86h-7.4c-.73,0-1.34-.06-1.83-.19-.49-.13-.93-.35-1.32-.66-.39-.31-.75-.73-1.09-1.25-.34-.52-.69-1.17-1.05-1.95l-1.87-3.58ZM705.55,168.43c-.42-.83-.88-1.25-1.4-1.25s-.99.42-1.4,1.25l-8.49,16.9c-.31.62-.47,1.14-.47,1.56,0,.88.62,1.32,1.87,1.32h16.9c1.25,0,1.87-.44,1.87-1.32,0-.42-.16-.93-.47-1.56l-8.41-16.9Z"/>
              <path class="cls-5" d="M780.47,204.1c0,1.45-.31,2.6-.93,3.43-.62.83-1.69,1.25-3.19,1.25h-7.32c-1.51,0-2.57-.42-3.19-1.25-.62-.83-.93-1.97-.93-3.43v-39.56c0-1.61.27-2.96.82-4.05.54-1.09,1.3-1.99,2.26-2.69.96-.7,2.06-1.21,3.31-1.52s2.57-.47,3.97-.47h30.37c3.89,0,7.25.21,10.09.62,2.83.42,5.15,1.18,6.97,2.3,1.82,1.12,3.17,2.67,4.05,4.67.88,2,1.32,4.58,1.32,7.75v2.8c0,3.12-.69,5.49-2.06,7.13-1.38,1.64-3.1,2.95-5.18,3.93-.42.21-.74.4-.97.58-.23.18-.35.46-.35.82,0,.42.13.7.39.86.26.16.52.29.78.39,1.25.42,2.34.95,3.27,1.6.93.65,1.71,1.52,2.34,2.61.62,1.09,1.09,2.44,1.4,4.05.31,1.61.47,3.56.47,5.84v2.34c0,1.45-.31,2.6-.93,3.43-.62.83-1.69,1.25-3.19,1.25h-7.32c-1.51,0-2.57-.42-3.19-1.25-.62-.83-.93-1.97-.93-3.43v-.86c0-2.18-.14-3.88-.43-5.1-.29-1.22-1.03-2.13-2.22-2.73-1.19-.6-3.03-.97-5.49-1.13-2.47-.16-5.91-.23-10.32-.23h-10.59c-.99,0-1.74.2-2.26.58-.52.39-.78,1.05-.78,1.99v7.48ZM800.01,182.53c2.49,0,4.53-.08,6.11-.23,1.58-.16,2.83-.45,3.74-.9.91-.44,1.53-1.06,1.87-1.87.34-.8.51-1.86.51-3.15v-2.88c0-1.19-.13-2.18-.39-2.96-.26-.78-.83-1.39-1.71-1.83-.88-.44-2.15-.75-3.82-.93-1.66-.18-3.89-.27-6.7-.27h-16.12c-.99,0-1.74.2-2.26.58-.52.39-.78,1.05-.78,1.99v9.73c0,1.82,1.01,2.73,3.04,2.73h16.51Z"/>
              <path class="cls-5" d="M873.69,170.45c0-.99-.22-1.67-.66-2.06-.44-.39-1.23-.58-2.38-.58h-15.26c-1.45,0-2.6-.31-3.43-.93-.83-.62-1.25-1.69-1.25-3.19v-3.74c0-1.45.42-2.5,1.25-3.15.83-.65,1.97-.97,3.43-.97h52.34c1.45,0,2.59.31,3.43.93.83.62,1.25,1.69,1.25,3.19v3.74c0,1.45-.42,2.51-1.25,3.15-.83.65-1.97.97-3.43.97h-15.26c-1.14,0-1.93.2-2.38.58-.44.39-.66,1.08-.66,2.06v33.64c0,1.51-.31,2.66-.93,3.47-.62.81-1.69,1.21-3.19,1.21h-7.4c-1.51,0-2.58-.43-3.23-1.29-.65-.86-.97-2.04-.97-3.54v-33.49Z"/>
              <path class="cls-5" d="M1005.85,202.15c0,2.29-.64,3.96-1.91,5.02-1.27,1.06-3.05,1.6-5.33,1.6h-12.3c-.99,0-1.83-.06-2.53-.19-.7-.13-1.32-.34-1.87-.62s-1.04-.66-1.48-1.13c-.44-.47-.92-1.04-1.44-1.71l-24.22-32.09c-.47-.62-.87-1.1-1.21-1.44-.34-.34-.71-.51-1.13-.51s-.75.13-1.01.39c-.26.26-.39.75-.39,1.48v31.15c0,1.51-.31,2.66-.93,3.47-.62.81-1.69,1.21-3.19,1.21h-7.09c-1.51,0-2.58-.43-3.23-1.29-.65-.86-.97-2.04-.97-3.54v-41.51c0-2.28.64-3.96,1.91-5.02,1.27-1.06,3.05-1.6,5.33-1.6h12.62c.99,0,1.82.07,2.49.19.67.13,1.29.34,1.83.62.55.29,1.05.66,1.52,1.13s.96,1.04,1.48,1.71l23.91,32.09c.47.62.87,1.1,1.21,1.44.34.34.71.51,1.13.51s.75-.13,1.01-.39.39-.75.39-1.48v-31.15c0-1.51.31-2.66.93-3.47.62-.8,1.69-1.21,3.19-1.21h7.09c1.51,0,2.58.43,3.23,1.29.65.86.97,2.04.97,3.54v41.51Z"/>
              <path class="cls-5" d="M1087.78,196.78c1.45,0,2.6.31,3.43.93.83.62,1.25,1.69,1.25,3.19v3.74c0,1.51-.42,2.57-1.25,3.19-.83.62-1.97.93-3.43.93h-44.31c-1.4,0-2.73-.16-3.97-.47s-2.35-.82-3.31-1.52c-.96-.7-1.71-1.61-2.26-2.73-.54-1.12-.82-2.45-.82-4.01v-35.51c0-1.61.27-2.96.82-4.05.54-1.09,1.3-1.99,2.26-2.69.96-.7,2.06-1.21,3.31-1.52s2.57-.47,3.97-.47h43.38c1.45,0,2.6.31,3.43.93.83.62,1.25,1.69,1.25,3.19v3.43c0,1.46-.42,2.51-1.25,3.15-.83.65-1.97.97-3.43.97h-35.82c-.99,0-1.74.2-2.26.58-.52.39-.78,1.05-.78,1.99v3.82c0,1.82,1.01,2.73,3.04,2.73h33.72c1.5,0,2.66.31,3.47.93.8.62,1.21,1.69,1.21,3.19v2.8c0,1.45-.4,2.51-1.21,3.15-.81.65-1.96.97-3.47.97h-33.72c-.99,0-1.74.19-2.26.58-.52.39-.78,1.05-.78,1.99v3.82c0,1.82,1.01,2.73,3.04,2.73h36.76Z"/>
              <path class="cls-5" d="M1131.78,204.1c0,1.45-.31,2.6-.93,3.43-.62.83-1.69,1.25-3.19,1.25h-7.32c-1.51,0-2.57-.42-3.19-1.25-.62-.83-.93-1.97-.93-3.43v-39.56c0-1.61.27-2.96.82-4.05.54-1.09,1.3-1.99,2.26-2.69.96-.7,2.06-1.21,3.31-1.52s2.57-.47,3.97-.47h30.37c3.89,0,7.25.21,10.09.62,2.83.42,5.15,1.18,6.97,2.3,1.82,1.12,3.17,2.67,4.05,4.67.88,2,1.32,4.58,1.32,7.75v2.8c0,3.12-.69,5.49-2.06,7.13-1.38,1.64-3.1,2.95-5.18,3.93-.42.21-.74.4-.97.58-.23.18-.35.46-.35.82,0,.42.13.7.39.86.26.16.52.29.78.39,1.25.42,2.34.95,3.27,1.6.93.65,1.71,1.52,2.34,2.61.62,1.09,1.09,2.44,1.4,4.05.31,1.61.47,3.56.47,5.84v2.34c0,1.45-.31,2.6-.93,3.43-.62.83-1.69,1.25-3.19,1.25h-7.32c-1.51,0-2.57-.42-3.19-1.25-.62-.83-.93-1.97-.93-3.43v-.86c0-2.18-.14-3.88-.43-5.1-.29-1.22-1.03-2.13-2.22-2.73-1.19-.6-3.03-.97-5.49-1.13-2.47-.16-5.91-.23-10.32-.23h-10.59c-.99,0-1.74.2-2.26.58-.52.39-.78,1.05-.78,1.99v7.48ZM1151.33,182.53c2.49,0,4.53-.08,6.11-.23,1.58-.16,2.83-.45,3.74-.9.91-.44,1.53-1.06,1.87-1.87.34-.8.51-1.86.51-3.15v-2.88c0-1.19-.13-2.18-.39-2.96-.26-.78-.83-1.39-1.71-1.83-.88-.44-2.15-.75-3.82-.93-1.66-.18-3.89-.27-6.7-.27h-16.12c-.99,0-1.74.2-2.26.58-.52.39-.78,1.05-.78,1.99v9.73c0,1.82,1.01,2.73,3.04,2.73h16.51Z"/>
            </g>
            <g>
              <path class="cls-1" d="M42.47,114.23c-10.01,0-17.85-.1-23.52-.29-5.67-.19-9.92-.67-12.73-1.43-2.81-.76-4.55-1.91-5.22-3.43-.67-1.52-1-3.67-1-6.43v-2.29c0-3.05.86-5.17,2.57-6.36,1.72-1.19,4.24-1.79,7.58-1.79h68.35c5.53,0,9.44-.57,11.73-1.72,2.29-1.14,3.43-3.24,3.43-6.29v-1.43c0-2.67-1.14-4.53-3.43-5.58-2.29-1.05-6.15-1.57-11.58-1.57h-44.47c-5.91,0-10.94-.45-15.09-1.36-4.15-.91-7.56-2.41-10.22-4.5-2.67-2.1-4.62-4.84-5.86-8.22-1.24-3.38-1.86-7.6-1.86-12.66v-3.43c0-7.44,1.02-13.16,3.07-17.16,2.05-4,5.36-6.96,9.94-8.87,4.58-1.91,10.56-3.03,17.95-3.36,7.39-.33,16.47-.5,27.24-.5h12.73c10.49,0,18.9.14,25.24.43,6.34.29,11.2.83,14.59,1.64,3.38.81,5.62,1.98,6.72,3.5,1.09,1.53,1.64,3.58,1.64,6.15v1.43c0,1.91-.26,3.41-.79,4.5-.52,1.1-1.26,1.93-2.22,2.5-.95.57-2.1.93-3.43,1.07-1.34.14-2.81.21-4.43.21H42.9c-2.86,0-5.17.17-6.94.5-1.76.33-3.12.79-4.08,1.36-.95.57-1.6,1.29-1.93,2.14-.33.86-.5,1.81-.5,2.86v1.43c0,1.34.17,2.48.5,3.43.33.95.98,1.76,1.93,2.43.95.67,2.31,1.14,4.08,1.43,1.76.29,4.08.43,6.94.43h41.47c6.1,0,11.49.29,16.16.86,4.67.57,8.6,1.79,11.8,3.65,3.19,1.86,5.62,4.55,7.29,8.08,1.67,3.53,2.5,8.2,2.5,14.01v3c0,6.58-.86,11.94-2.57,16.09-1.72,4.15-4.65,7.36-8.79,9.65-4.15,2.29-9.65,3.84-16.52,4.65-6.86.81-15.44,1.21-25.74,1.21h-26.03Z"/>
              <path class="cls-1" d="M220.21,16.28c9.53,0,17.35.45,23.45,1.36,6.1.91,10.89,2.62,14.37,5.15,3.48,2.53,5.86,6.05,7.15,10.58,1.29,4.53,1.93,10.42,1.93,17.66v2.57c0,7.25-.64,13.13-1.93,17.66-1.29,4.53-3.67,8.06-7.15,10.58-3.48,2.53-8.27,4.24-14.37,5.15-6.1.91-13.92,1.36-23.45,1.36h-32.75c-1.81,0-3.2.36-4.15,1.07-.95.71-1.43,1.93-1.43,3.65v11.87c0,2.77-.57,4.89-1.72,6.36-1.14,1.48-3.1,2.22-5.86,2.22h-13.3c-2.77,0-4.74-.79-5.93-2.36-1.19-1.57-1.79-3.74-1.79-6.51V32.29c0-2.95.5-5.43,1.5-7.44s2.38-3.65,4.15-4.93c1.76-1.29,3.79-2.22,6.08-2.79s4.72-.86,7.29-.86h47.9ZM187.46,37.73c-1.81,0-3.2.36-4.15,1.07-.95.71-1.43,1.93-1.43,3.65v19.16c0,3.34,1.86,5,5.58,5h27.88c5.34,0,9.58-.17,12.73-.5,3.15-.33,5.51-.98,7.08-1.93,1.57-.95,2.57-2.33,3-4.15.43-1.81.64-4.19.64-7.15v-1.29c0-2.95-.21-5.36-.64-7.22-.43-1.86-1.43-3.26-3-4.22-1.57-.95-3.93-1.6-7.08-1.93-3.15-.33-7.39-.5-12.73-.5h-27.88Z"/>
              <path class="cls-1" d="M396.95,91.49c2.67,0,4.77.57,6.29,1.72,1.52,1.14,2.29,3.1,2.29,5.86v6.86c0,2.77-.76,4.72-2.29,5.86-1.53,1.14-3.62,1.72-6.29,1.72h-81.36c-2.57,0-5-.29-7.29-.86-2.29-.57-4.31-1.5-6.08-2.79-1.77-1.29-3.15-2.95-4.15-5-1-2.05-1.5-4.5-1.5-7.36V32.29c0-2.95.5-5.43,1.5-7.44s2.38-3.65,4.15-4.93c1.76-1.29,3.79-2.22,6.08-2.79s4.72-.86,7.29-.86h79.65c2.67,0,4.77.57,6.29,1.72,1.52,1.14,2.29,3.1,2.29,5.86v6.29c0,2.67-.76,4.6-2.29,5.79-1.53,1.19-3.62,1.79-6.29,1.79h-65.78c-1.81,0-3.2.36-4.15,1.07-.95.71-1.43,1.93-1.43,3.65v7.01c0,3.34,1.86,5,5.58,5h61.92c2.76,0,4.88.57,6.36,1.72,1.48,1.14,2.22,3.1,2.22,5.86v5.15c0,2.67-.74,4.6-2.22,5.79-1.48,1.19-3.6,1.79-6.36,1.79h-61.92c-1.81,0-3.2.36-4.15,1.07-.95.72-1.43,1.93-1.43,3.65v7.01c0,3.34,1.86,5,5.58,5h67.49Z"/>
              <path class="cls-1" d="M462.44,85.35c0,3.72,1.91,5.58,5.72,5.58h51.62c2.67,0,4.77.57,6.29,1.72,1.52,1.14,2.29,3.1,2.29,5.86v7.44c0,2.77-.76,4.72-2.29,5.86-1.53,1.14-3.62,1.72-6.29,1.72h-67.35c-2.57,0-5-.29-7.29-.86-2.29-.57-4.31-1.5-6.08-2.79-1.77-1.29-3.15-2.95-4.15-5-1-2.05-1.5-4.5-1.5-7.36V24.86c0-2.76.57-4.88,1.72-6.36,1.14-1.48,3.1-2.22,5.86-2.22h13.73c2.76,0,4.74.79,5.93,2.36,1.19,1.57,1.79,3.74,1.79,6.51v60.2Z"/>
              <path class="cls-1" d="M583.7,85.35c0,3.72,1.91,5.58,5.72,5.58h51.62c2.67,0,4.77.57,6.29,1.72,1.52,1.14,2.29,3.1,2.29,5.86v7.44c0,2.77-.76,4.72-2.29,5.86-1.53,1.14-3.62,1.72-6.29,1.72h-67.35c-2.57,0-5-.29-7.29-.86-2.29-.57-4.31-1.5-6.08-2.79-1.77-1.29-3.15-2.95-4.15-5-1-2.05-1.5-4.5-1.5-7.36V24.86c0-2.76.57-4.88,1.72-6.36,1.14-1.48,3.1-2.22,5.86-2.22h13.73c2.76,0,4.74.79,5.93,2.36,1.19,1.57,1.79,3.74,1.79,6.51v60.2Z"/>
              <path class="cls-1" d="M675.93,32.29c0-2.95.5-5.43,1.5-7.44s2.38-3.65,4.15-4.93c1.76-1.29,3.79-2.22,6.08-2.79s4.72-.86,7.29-.86h60.06c7.44,0,13.63.41,18.59,1.21,4.96.81,8.94,2.17,11.94,4.08,3,1.91,5.15,4.41,6.43,7.51,1.29,3.1,1.93,6.94,1.93,11.51,0,4.96-.64,8.82-1.93,11.58-1.29,2.77-3.36,5.1-6.22,7.01-1.62.95-2.43,1.91-2.43,2.86,0,.76.19,1.31.57,1.64.38.33.91.64,1.57.93,4,1.72,6.94,4.17,8.79,7.36,1.86,3.2,2.79,7.7,2.79,13.51s-.69,10.08-2.07,13.66c-1.38,3.58-3.5,6.43-6.36,8.58-2.86,2.14-6.46,3.65-10.8,4.5-4.34.86-9.51,1.29-15.51,1.29h-67.35c-2.57,0-5-.29-7.29-.86-2.29-.57-4.31-1.5-6.08-2.79-1.77-1.29-3.15-2.95-4.15-5-1-2.05-1.5-4.5-1.5-7.36V32.29ZM756.58,54.6c3.05,0,5.38-.64,7.01-1.93,1.62-1.29,2.43-3.65,2.43-7.08,0-3.62-.81-6.08-2.43-7.36-1.62-1.29-3.96-1.93-7.01-1.93h-46.9c-1.91,0-3.29.34-4.15,1-.86.67-1.29,1.86-1.29,3.58v8.87c0,1.81.43,3.07,1.29,3.79.86.71,2.24,1.07,4.15,1.07h46.9ZM709.68,73.19c-1.91,0-3.29.33-4.15,1-.86.67-1.29,1.86-1.29,3.57v10.15c0,1.81.43,3.07,1.29,3.79.86.71,2.24,1.07,4.15,1.07h47.62c4.38,0,7.39-.81,9.01-2.43s2.43-4.1,2.43-7.44c0-3.53-.84-6.03-2.5-7.51-1.67-1.48-4.65-2.22-8.94-2.22h-47.62Z"/>
              <path class="cls-1" d="M1108.2,43.16c0-1.81-.41-3.07-1.22-3.79-.81-.72-2.27-1.07-4.36-1.07h-28.03c-2.67,0-4.77-.57-6.29-1.72-1.53-1.14-2.29-3.1-2.29-5.86v-6.86c0-2.67.76-4.6,2.29-5.79,1.52-1.19,3.62-1.79,6.29-1.79h96.09c2.67,0,4.77.57,6.29,1.72,1.52,1.14,2.29,3.1,2.29,5.86v6.86c0,2.67-.76,4.6-2.29,5.79-1.53,1.19-3.62,1.79-6.29,1.79h-28.03c-2.1,0-3.55.36-4.36,1.07-.81.71-1.22,1.98-1.22,3.79v61.77c0,2.77-.57,4.89-1.72,6.36-1.14,1.48-3.1,2.22-5.86,2.22h-13.58c-2.77,0-4.74-.79-5.93-2.36-1.19-1.57-1.79-3.74-1.79-6.51v-61.49Z"/>
            </g>
          </g>
        </g>
      </g>
    </g>
  </g>
</svg>